<svg width="18" height="18" viewBox="0 0 18 18" fill="none" xmlns="http://www.w3.org/2000/svg">
<g id="following 1" clip-path="url(#clip0_825_833)">
<g id="Group">
<path id="Vector" d="M6.7494 9.00001C9.23446 9.00001 11.249 6.98548 11.249 4.50043C11.249 2.01537 9.23446 0.000839233 6.7494 0.000839233C4.26435 0.000839233 2.24982 2.01537 2.24982 4.50043C2.24982 6.98548 4.26435 9.00001 6.7494 9.00001Z" fill="#E8E8E8"/>
<path id="Vector_2" d="M6.74938 10.4998C3.02369 10.5044 0.00453474 13.5235 0 17.2492C0 17.6634 0.335747 17.9991 0.749919 17.9991H12.7488C13.163 17.9991 13.4987 17.6634 13.4987 17.2492C13.4942 13.5235 10.4751 10.5044 6.74938 10.4998Z" fill="#E8E8E8"/>
<path id="Vector_3" d="M16.4985 5.90654C15.6296 5.94981 14.9591 6.68732 14.9986 7.55638C15.0381 6.68732 14.3676 5.94981 13.4987 5.90654C12.6298 5.94981 11.9594 6.68732 11.9988 7.55638C11.9988 8.85377 13.6907 10.3739 14.5336 11.0503C14.8054 11.2679 15.1918 11.2679 15.4635 11.0503C16.3065 10.3754 17.9983 8.85377 17.9983 7.55638C18.0378 6.68729 17.3674 5.94981 16.4985 5.90654Z" fill="#E8E8E8"/>
</g>
</g>
<defs>
<clipPath id="clip0_825_833">
<rect width="18" height="18" fill="white"/>
</clipPath>
</defs>
</svg>
