<svg width="18" height="18" viewBox="0 0 18 18" fill="none" xmlns="http://www.w3.org/2000/svg">
<g id="headphones (1) 1">
<path id="Vector" d="M15.75 9.318V8.25C15.75 6.45979 15.0389 4.7429 13.773 3.47703C12.5071 2.21116 10.7902 1.5 9.00002 1.5C7.20981 1.5 5.49292 2.21116 4.22705 3.47703C2.96118 4.7429 2.25002 6.45979 2.25002 8.25V9.318C1.46339 9.66438 0.819624 10.2705 0.42649 11.0348C0.033356 11.7991 -0.0852803 12.6753 0.0904422 13.5167C0.266165 14.358 0.72558 15.1135 1.39178 15.6566C2.05797 16.1997 2.89051 16.4974 3.75002 16.5C4.14785 16.5 4.52938 16.342 4.81068 16.0607C5.09199 15.7794 5.25002 15.3978 5.25002 15V10.5C5.25002 10.1022 5.09199 9.72064 4.81068 9.43934C4.52938 9.15804 4.14785 9 3.75002 9V8.25C3.75002 6.85761 4.30315 5.52226 5.28771 4.53769C6.27228 3.55312 7.60764 3 9.00002 3C10.3924 3 11.7278 3.55312 12.7123 4.53769C13.6969 5.52226 14.25 6.85761 14.25 8.25V9C13.8522 9 13.4707 9.15804 13.1894 9.43934C12.9081 9.72064 12.75 10.1022 12.75 10.5V15C12.75 15.3978 12.9081 15.7794 13.1894 16.0607C13.4707 16.342 13.8522 16.5 14.25 16.5C15.1095 16.4974 15.9421 16.1997 16.6083 15.6566C17.2745 15.1135 17.7339 14.358 17.9096 13.5167C18.0853 12.6753 17.9667 11.7991 17.5736 11.0348C17.1804 10.2705 16.5367 9.66438 15.75 9.318Z" fill="#E8E8E8"/>
</g>
</svg>
