<svg width="18" height="18" viewBox="0 0 18 18" fill="none" xmlns="http://www.w3.org/2000/svg">
<g id="list-music 1" clip-path="url(#clip0_825_824)">
<path id="Vector" d="M17.25 0H16.5C14.4323 0 12.75 1.68225 12.75 3.75V10.6957C12.036 10.1055 11.121 9.75 10.125 9.75C7.851 9.75 6 11.6003 6 13.875C6 16.1497 7.851 18 10.125 18C12.399 18 14.25 16.1497 14.25 13.875V3.75C14.25 2.5095 15.2595 1.5 16.5 1.5H17.25C17.6647 1.5 18 1.164 18 0.75C18 0.336 17.6647 0 17.25 0ZM0 0.75C0 0.336 0.33525 0 0.75 0H9C9.41475 0 9.75 0.336 9.75 0.75C9.75 1.164 9.41475 1.5 9 1.5H0.75C0.33525 1.5 0 1.164 0 0.75ZM0 5.25C0 4.836 0.33525 4.5 0.75 4.5H9C9.41475 4.5 9.75 4.836 9.75 5.25C9.75 5.664 9.41475 6 9 6H0.75C0.33525 6 0 5.664 0 5.25ZM6 9.75C6 10.164 5.66475 10.5 5.25 10.5H0.75C0.33525 10.5 0 10.164 0 9.75C0 9.336 0.33525 9 0.75 9H5.25C5.66475 9 6 9.336 6 9.75Z" fill="#E8E8E8"/>
</g>
<defs>
<clipPath id="clip0_825_824">
<rect width="18" height="18" fill="white"/>
</clipPath>
</defs>
</svg>
